<svg width="63" height="43" viewBox="0 0 63 43" fill="none" xmlns="http://www.w3.org/2000/svg">
<path d="M52.3361 10.1735C50.2645 10.1754 48.2383 10.7349 46.5041 11.7836C44.7699 12.8324 43.4026 14.3253 42.5686 16.0805C42.1675 15.2408 41.6419 14.4569 41.0069 13.7516C42.1181 11.3472 42.152 8.63263 41.1009 6.2051C40.0499 3.77757 38.0001 1.83593 35.4025 0.80732C34.1162 0.298004 32.7342 0.0281719 31.3353 0.0132298C29.9365 -0.00171231 28.5481 0.238528 27.2495 0.720236C24.6269 1.69309 22.5292 3.59043 21.418 5.99486C20.8033 4.69986 19.8953 3.54224 18.7552 2.60036C17.6152 1.65848 16.2698 0.954351 14.8101 0.53564C13.3505 0.116928 11.8107 -0.00658501 10.295 0.173464C8.77936 0.353512 7.32317 0.832918 6.02507 1.57922C4.72697 2.32552 3.61727 3.3213 2.77112 4.49911C1.92496 5.67693 1.36211 7.0093 1.12067 8.40598C0.879227 9.80267 0.964836 11.2311 1.3717 12.5945C1.77856 13.9579 2.49717 15.2244 3.47888 16.3084C3.86094 16.7296 4.28186 17.1192 4.73688 17.4728L20.78 32.3226C20.9485 32.4786 21.177 32.5662 21.4153 32.5662C21.6536 32.5662 21.8821 32.4786 22.0506 32.3226L26.5434 28.164L41.9252 42.4033C42.0937 42.5592 42.3222 42.6468 42.5605 42.6468C42.7988 42.6468 43.0273 42.5592 43.1958 42.4033L59.1904 27.5984C59.6739 27.2224 60.1212 26.8083 60.5274 26.3608C61.824 24.9195 62.6501 23.1661 62.909 21.306C63.1679 19.4458 62.849 17.5559 61.9895 15.8575C61.13 14.1591 59.7656 12.7225 58.056 11.7158C56.3463 10.7092 54.3623 10.1742 52.3361 10.1735ZM26.5488 25.8218C26.3691 25.6554 26.1642 25.4891 25.9917 25.3044C24.5404 23.7016 23.806 21.6459 23.9387 19.5582C24.0715 17.4704 25.0615 15.5087 26.706 14.0745C28.3504 12.6404 30.525 11.8424 32.7844 11.8439C35.0437 11.8454 37.217 12.6463 38.8593 14.0827C38.6052 14.4896 38.3142 14.8758 37.9895 15.2371C37.6377 15.6218 37.2511 15.9779 36.8339 16.3017L26.5488 25.8218ZM21.4252 30.5627L5.95894 16.2568C5.55792 15.9433 5.18638 15.5988 4.84831 15.2271C3.93555 14.2147 3.29971 13.0137 2.99459 11.7256C2.68947 10.4376 2.72405 9.10046 3.09541 7.82742C3.46677 6.55437 4.16398 5.38286 5.12803 4.41202C6.09209 3.44119 7.29462 2.6996 8.63386 2.25002C9.9731 1.80043 11.4096 1.65608 12.8219 1.82918C14.2342 2.00227 15.5806 2.48773 16.7473 3.24446C17.914 4.00118 18.8665 5.00691 19.5244 6.17654C20.1822 7.34617 20.526 8.64527 20.5266 9.96391C20.5266 10.1845 20.6213 10.3961 20.7898 10.552C20.9583 10.708 21.1869 10.7956 21.4252 10.7956C21.6635 10.7956 21.892 10.708 22.0606 10.552C22.2291 10.3961 22.3237 10.1845 22.3237 9.96391C22.3119 8.77158 22.5808 7.59117 23.1116 6.50475C23.6425 5.41833 24.4226 4.45196 25.3978 3.67283C26.3729 2.89371 27.5197 2.32052 28.7584 1.99312C29.9971 1.66572 31.2979 1.59196 32.5705 1.77698C33.8431 1.962 35.0569 2.40135 36.1275 3.06448C37.1981 3.72762 38.0998 4.59863 38.7699 5.61696C39.4401 6.63529 39.8626 7.7765 40.008 8.96125C40.1535 10.146 40.0185 11.3459 39.6123 12.4774C37.5686 10.8957 34.9588 10.0803 32.2976 10.1919C29.6364 10.3035 27.1169 11.3341 25.2362 13.0804C23.3554 14.8267 22.2499 17.1619 22.1375 19.6255C22.0252 22.0892 22.9143 24.5023 24.6295 26.389C24.829 26.6086 25.0392 26.8215 25.2549 27.0195L21.4252 30.5627ZM59.1311 25.3194C58.7799 25.7041 58.3939 26.0602 57.9773 26.384L42.5686 40.6467L27.8176 26.9962L38.0452 17.5261C38.853 16.9207 39.5398 16.1888 40.0741 15.3635C41.112 16.7336 41.6692 18.3662 41.67 20.0396C41.67 20.2601 41.7647 20.4717 41.9332 20.6277C42.1017 20.7837 42.3303 20.8713 42.5686 20.8713C42.8069 20.8713 43.0354 20.7837 43.204 20.6277C43.3725 20.4717 43.4671 20.2601 43.4671 20.0396C43.4659 18.7191 43.8088 17.4179 44.4666 16.2463C45.1244 15.0746 46.0778 14.0671 47.2458 13.3091C48.4139 12.5512 49.7623 12.0652 51.1765 11.8923C52.5908 11.7194 54.0292 11.8648 55.3698 12.3161C56.7104 12.7675 57.9137 13.5114 58.8775 14.4848C59.8413 15.4583 60.5373 16.6325 60.9065 17.9079C61.2756 19.1834 61.3069 20.5224 60.9979 21.8115C60.6888 23.1005 60.0484 24.3016 59.1311 25.3128V25.3194Z" fill="#C15B78"/>
</svg>
